<svg xmlns="http://www.w3.org/2000/svg" xmlns:xlink="http://www.w3.org/1999/xlink" contentStyleType="text/css" height="914px" preserveAspectRatio="none" style="width:2271px;height:914px;background:#FFFFFF;" version="1.1" viewBox="0 0 2271 914" width="2271px" zoomAndPan="magnify"><defs/><g><!--cluster 2cd2409c8417c10d0ae53e65a8cd3bc7--><g id="cluster_2cd2409c8417c10d0ae53e65a8cd3bc7"><path d="M8.5,6 L14.5,6 A3.75,3.75 0 0 1 17,8.5 L24,28.2969 L2261.5,28.2969 A2.5,2.5 0 0 1 2264,30.7969 L2264,904.95 A2.5,2.5 0 0 1 2261.5,907.45 L8.5,907.45 A2.5,2.5 0 0 1 6,904.95 L6,8.5 A2.5,2.5 0 0 1 8.5,6 " fill="none" style="stroke:#000000;stroke-width:1.5;"/><line style="stroke:#000000;stroke-width:1.5;" x1="6" x2="24" y1="28.2969" y2="28.2969"/><text fill="#000000" font-family="sans-serif" font-size="14" font-weight="bold" lengthAdjust="spacing" textLength="5" x="10" y="20.9951">&#160;</text></g><!--cluster 857a69944eef6c2c5916646d292fe969--><g id="cluster_857a69944eef6c2c5916646d292fe969"><path d="M32.5,135 L67.5,135 A3.75,3.75 0 0 1 70,137.5 L77,157.2969 L129.5,157.2969 A2.5,2.5 0 0 1 132,159.7969 L132,262.39 A2.5,2.5 0 0 1 129.5,264.89 L32.5,264.89 A2.5,2.5 0 0 1 30,262.39 L30,137.5 A2.5,2.5 0 0 1 32.5,135 " fill="none" style="stroke:#000000;stroke-width:1.5;"/><line style="stroke:#000000;stroke-width:1.5;" x1="30" x2="77" y1="157.2969" y2="157.2969"/><text fill="#000000" font-family="sans-serif" font-size="14" font-weight="bold" lengthAdjust="spacing" textLength="34" x="34" y="149.9951">app/</text></g><!--cluster 973032761d6aa4b19fc2035b0e782f7a--><g id="cluster_973032761d6aa4b19fc2035b0e782f7a"><path d="M158.5,49 L203.5,49 A3.75,3.75 0 0 1 206,51.5 L213,71.2969 L1825.5,71.2969 A2.5,2.5 0 0 1 1828,73.7969 L1828,880.95 A2.5,2.5 0 0 1 1825.5,883.45 L158.5,883.45 A2.5,2.5 0 0 1 156,880.95 L156,51.5 A2.5,2.5 0 0 1 158.5,49 " fill="none" style="stroke:#000000;stroke-width:1.5;"/><line style="stroke:#000000;stroke-width:1.5;" x1="156" x2="213" y1="71.2969" y2="71.2969"/><text fill="#000000" font-family="sans-serif" font-size="14" font-weight="bold" lengthAdjust="spacing" textLength="44" x="160" y="63.9951">shop/</text></g><!--cluster c95c6daa4dcd0b736379d7879596a512--><g id="cluster_c95c6daa4dcd0b736379d7879596a512"><path d="M182.5,92 L224.5,92 A3.75,3.75 0 0 1 227,94.5 L234,114.2969 L1264.5,114.2969 A2.5,2.5 0 0 1 1267,116.7969 L1267,579.17 A2.5,2.5 0 0 1 1264.5,581.67 L182.5,581.67 A2.5,2.5 0 0 1 180,579.17 L180,94.5 A2.5,2.5 0 0 1 182.5,92 " fill="none" style="stroke:#000000;stroke-width:1.5;"/><line style="stroke:#000000;stroke-width:1.5;" x1="180" x2="234" y1="114.2969" y2="114.2969"/><text fill="#000000" font-family="sans-serif" font-size="14" font-weight="bold" lengthAdjust="spacing" textLength="41" x="184" y="106.9951">core/</text></g><!--cluster 13c3a853d269a8c09d1de048b9d3e0cf--><g id="cluster_13c3a853d269a8c09d1de048b9d3e0cf"><path d="M462.5,288.89 L550.5,288.89 A3.75,3.75 0 0 1 553,291.39 L560,311.1869 L831.5,311.1869 A2.5,2.5 0 0 1 834,313.6869 L834,555.17 A2.5,2.5 0 0 1 831.5,557.67 L462.5,557.67 A2.5,2.5 0 0 1 460,555.17 L460,291.39 A2.5,2.5 0 0 1 462.5,288.89 " fill="none" style="stroke:#000000;stroke-width:1.5;"/><line style="stroke:#000000;stroke-width:1.5;" x1="460" x2="560" y1="311.1869" y2="311.1869"/><text fill="#000000" font-family="sans-serif" font-size="14" font-weight="bold" lengthAdjust="spacing" textLength="87" x="464" y="303.8851">serializers/</text></g><!--cluster 9067e5eeb9474e1e4d28db414accf109--><g id="cluster_9067e5eeb9474e1e4d28db414accf109"><path d="M483.5,135 L536.5,135 A3.75,3.75 0 0 1 539,137.5 L546,157.2969 L1027.5,157.2969 A2.5,2.5 0 0 1 1030,159.7969 L1030,262.39 A2.5,2.5 0 0 1 1027.5,264.89 L483.5,264.89 A2.5,2.5 0 0 1 481,262.39 L481,137.5 A2.5,2.5 0 0 1 483.5,135 " fill="none" style="stroke:#000000;stroke-width:1.5;"/><line style="stroke:#000000;stroke-width:1.5;" x1="481" x2="546" y1="157.2969" y2="157.2969"/><text fill="#000000" font-family="sans-serif" font-size="14" font-weight="bold" lengthAdjust="spacing" textLength="52" x="485" y="149.9951">admin/</text></g><!--cluster aa8169639a6b6b1968df38b76157b0c3--><g id="cluster_aa8169639a6b6b1968df38b76157b0c3"><path d="M206.5,135 L258.5,135 A3.75,3.75 0 0 1 261,137.5 L268,157.2969 L454.5,157.2969 A2.5,2.5 0 0 1 457,159.7969 L457,262.39 A2.5,2.5 0 0 1 454.5,264.89 L206.5,264.89 A2.5,2.5 0 0 1 204,262.39 L204,137.5 A2.5,2.5 0 0 1 206.5,135 " fill="none" style="stroke:#000000;stroke-width:1.5;"/><line style="stroke:#000000;stroke-width:1.5;" x1="204" x2="268" y1="157.2969" y2="157.2969"/><text fill="#000000" font-family="sans-serif" font-size="14" font-weight="bold" lengthAdjust="spacing" textLength="51" x="208" y="149.9951">views/</text></g><!--cluster 3a88fd4730bbe851087eeca13d240d21--><g id="cluster_3a88fd4730bbe851087eeca13d240d21"><path d="M1293.5,92 L1319.5,92 A3.75,3.75 0 0 1 1322,94.5 L1329,114.2969 L1582.5,114.2969 A2.5,2.5 0 0 1 1585,116.7969 L1585,856.95 A2.5,2.5 0 0 1 1582.5,859.45 L1293.5,859.45 A2.5,2.5 0 0 1 1291,856.95 L1291,94.5 A2.5,2.5 0 0 1 1293.5,92 " fill="none" style="stroke:#000000;stroke-width:1.5;"/><line style="stroke:#000000;stroke-width:1.5;" x1="1291" x2="1329" y1="114.2969" y2="114.2969"/><text fill="#000000" font-family="sans-serif" font-size="14" font-weight="bold" lengthAdjust="spacing" textLength="25" x="1295" y="106.9951">db/</text></g><!--cluster fb9e66abcdf8a2e693d295d5865800d3--><g id="cluster_fb9e66abcdf8a2e693d295d5865800d3"><path d="M1317.5,135 L1380.5,135 A3.75,3.75 0 0 1 1383,137.5 L1390,157.2969 L1558.5,157.2969 A2.5,2.5 0 0 1 1561,159.7969 L1561,832.95 A2.5,2.5 0 0 1 1558.5,835.45 L1317.5,835.45 A2.5,2.5 0 0 1 1315,832.95 L1315,137.5 A2.5,2.5 0 0 1 1317.5,135 " fill="none" style="stroke:#000000;stroke-width:1.5;"/><line style="stroke:#000000;stroke-width:1.5;" x1="1315" x2="1390" y1="157.2969" y2="157.2969"/><text fill="#000000" font-family="sans-serif" font-size="14" font-weight="bold" lengthAdjust="spacing" textLength="62" x="1319" y="149.9951">models/</text></g><!--entity d9961f9faa1d503ec12df6affbd6f2a4--><g id="elem_d9961f9faa1d503ec12df6affbd6f2a4"><rect fill="#F1F1F1" height="78.8906" rx="2.5" ry="2.5" style="stroke:#181818;stroke-width:0.5;" width="226" x="1847" y="170"/><rect fill="#F1F1F1" height="10" style="stroke:#181818;stroke-width:0.5;" width="15" x="2053" y="175"/><rect fill="#F1F1F1" height="2" style="stroke:#181818;stroke-width:0.5;" width="4" x="2051" y="177"/><rect fill="#F1F1F1" height="2" style="stroke:#181818;stroke-width:0.5;" width="4" x="2051" y="181"/><text fill="#000000" font-family="sans-serif" font-size="14" font-weight="bold" lengthAdjust="spacing" textLength="186" x="1862" y="202.9951">interactions/yandex_api</text><text fill="#000000" font-family="sans-serif" font-size="14" lengthAdjust="spacing" textLength="4" x="1862" y="219.292">&#160;</text><text fill="#000000" font-family="sans-serif" font-size="14" lengthAdjust="spacing" textLength="4" x="1862" y="235.5889">&#160;</text></g><!--entity ff019a08f74f4227943feb31533ebaaf--><g id="elem_ff019a08f74f4227943feb31533ebaaf"><rect fill="#F1F1F1" height="78.8906" rx="2.5" ry="2.5" style="stroke:#181818;stroke-width:0.5;" width="140" x="2108" y="170"/><rect fill="#F1F1F1" height="10" style="stroke:#181818;stroke-width:0.5;" width="15" x="2228" y="175"/><rect fill="#F1F1F1" height="2" style="stroke:#181818;stroke-width:0.5;" width="4" x="2226" y="177"/><rect fill="#F1F1F1" height="2" style="stroke:#181818;stroke-width:0.5;" width="4" x="2226" y="181"/><text fill="#000000" font-family="sans-serif" font-size="14" font-weight="bold" lengthAdjust="spacing" textLength="100" x="2123" y="202.9951">utils/monads</text><text fill="#000000" font-family="sans-serif" font-size="14" lengthAdjust="spacing" textLength="4" x="2123" y="219.292">&#160;</text><text fill="#000000" font-family="sans-serif" font-size="14" lengthAdjust="spacing" textLength="4" x="2123" y="235.5889">&#160;</text></g><!--entity 23cbd9ad56f6e1e7f0584d42bd3c8bfd--><g id="elem_23cbd9ad56f6e1e7f0584d42bd3c8bfd"><rect fill="#F1F1F1" height="78.8906" rx="2.5" ry="2.5" style="stroke:#181818;stroke-width:0.5;" width="70" x="46" y="170"/><rect fill="#F1F1F1" height="10" style="stroke:#181818;stroke-width:0.5;" width="15" x="96" y="175"/><rect fill="#F1F1F1" height="2" style="stroke:#181818;stroke-width:0.5;" width="4" x="94" y="177"/><rect fill="#F1F1F1" height="2" style="stroke:#181818;stroke-width:0.5;" width="4" x="94" y="181"/><text fill="#000000" font-family="sans-serif" font-size="14" font-weight="bold" lengthAdjust="spacing" textLength="30" x="61" y="202.9951">urls</text><text fill="#000000" font-family="sans-serif" font-size="14" lengthAdjust="spacing" textLength="4" x="61" y="219.292">&#160;</text><text fill="#000000" font-family="sans-serif" font-size="14" lengthAdjust="spacing" textLength="4" x="61" y="235.5889">&#160;</text></g><!--entity 758be6046ec50289c489dc9017a8d670--><g id="elem_758be6046ec50289c489dc9017a8d670"><rect fill="#F1F1F1" height="78.8906" rx="2.5" ry="2.5" style="stroke:#181818;stroke-width:0.5;" width="98" x="1601" y="170"/><rect fill="#F1F1F1" height="10" style="stroke:#181818;stroke-width:0.5;" width="15" x="1679" y="175"/><rect fill="#F1F1F1" height="2" style="stroke:#181818;stroke-width:0.5;" width="4" x="1677" y="177"/><rect fill="#F1F1F1" height="2" style="stroke:#181818;stroke-width:0.5;" width="4" x="1677" y="181"/><text fill="#000000" font-family="sans-serif" font-size="14" font-weight="bold" lengthAdjust="spacing" textLength="58" x="1616" y="202.9951">api/urls</text><text fill="#000000" font-family="sans-serif" font-size="14" lengthAdjust="spacing" textLength="4" x="1616" y="219.292">&#160;</text><text fill="#000000" font-family="sans-serif" font-size="14" lengthAdjust="spacing" textLength="4" x="1616" y="235.5889">&#160;</text></g><!--entity 1cc71e7e518d12ffc0d08b562c6e0418--><g id="elem_1cc71e7e518d12ffc0d08b562c6e0418"><rect fill="#F1F1F1" height="78.8906" rx="2.5" ry="2.5" style="stroke:#181818;stroke-width:0.5;" width="78" x="1734" y="170"/><rect fill="#F1F1F1" height="10" style="stroke:#181818;stroke-width:0.5;" width="15" x="1792" y="175"/><rect fill="#F1F1F1" height="2" style="stroke:#181818;stroke-width:0.5;" width="4" x="1790" y="177"/><rect fill="#F1F1F1" height="2" style="stroke:#181818;stroke-width:0.5;" width="4" x="1790" y="181"/><text fill="#000000" font-family="sans-serif" font-size="14" font-weight="bold" lengthAdjust="spacing" textLength="38" x="1749" y="202.9951">apps</text><text fill="#000000" font-family="sans-serif" font-size="14" lengthAdjust="spacing" textLength="4" x="1749" y="219.292">&#160;</text><text fill="#000000" font-family="sans-serif" font-size="14" lengthAdjust="spacing" textLength="4" x="1749" y="235.5889">&#160;</text></g><!--entity 10977ad86d7e7d22b2dcdc54396c7bba--><g id="elem_10977ad86d7e7d22b2dcdc54396c7bba"><rect fill="#F1F1F1" height="78.8906" rx="2.5" ry="2.5" style="stroke:#181818;stroke-width:0.5;" width="87" x="1606.5" y="323.89"/><rect fill="#F1F1F1" height="10" style="stroke:#181818;stroke-width:0.5;" width="15" x="1673.5" y="328.89"/><rect fill="#F1F1F1" height="2" style="stroke:#181818;stroke-width:0.5;" width="4" x="1671.5" y="330.89"/><rect fill="#F1F1F1" height="2" style="stroke:#181818;stroke-width:0.5;" width="4" x="1671.5" y="334.89"/><text fill="#000000" font-family="sans-serif" font-size="14" font-weight="bold" lengthAdjust="spacing" textLength="47" x="1621.5" y="356.8851">admin</text><text fill="#000000" font-family="sans-serif" font-size="14" lengthAdjust="spacing" textLength="4" x="1621.5" y="373.182">&#160;</text><text fill="#000000" font-family="sans-serif" font-size="14" lengthAdjust="spacing" textLength="4" x="1621.5" y="389.4789">&#160;</text></g><!--entity d8c68b35c126ccc24d738ca97b1bcf41--><g id="elem_d8c68b35c126ccc24d738ca97b1bcf41"><rect fill="#F1F1F1" height="78.8906" rx="2.5" ry="2.5" style="stroke:#181818;stroke-width:0.5;" width="86" x="1049" y="170"/><rect fill="#F1F1F1" height="10" style="stroke:#181818;stroke-width:0.5;" width="15" x="1115" y="175"/><rect fill="#F1F1F1" height="2" style="stroke:#181818;stroke-width:0.5;" width="4" x="1113" y="177"/><rect fill="#F1F1F1" height="2" style="stroke:#181818;stroke-width:0.5;" width="4" x="1113" y="181"/><text fill="#000000" font-family="sans-serif" font-size="14" font-weight="bold" lengthAdjust="spacing" textLength="46" x="1064" y="202.9951">filters</text><text fill="#000000" font-family="sans-serif" font-size="14" lengthAdjust="spacing" textLength="4" x="1064" y="219.292">&#160;</text><text fill="#000000" font-family="sans-serif" font-size="14" lengthAdjust="spacing" textLength="4" x="1064" y="235.5889">&#160;</text></g><!--entity 7217ba70f7e5e24b2dca0c4263175bd7--><g id="elem_7217ba70f7e5e24b2dca0c4263175bd7"><rect fill="#F1F1F1" height="78.8906" rx="2.5" ry="2.5" style="stroke:#181818;stroke-width:0.5;" width="81" x="1169.5" y="170"/><rect fill="#F1F1F1" height="10" style="stroke:#181818;stroke-width:0.5;" width="15" x="1230.5" y="175"/><rect fill="#F1F1F1" height="2" style="stroke:#181818;stroke-width:0.5;" width="4" x="1228.5" y="177"/><rect fill="#F1F1F1" height="2" style="stroke:#181818;stroke-width:0.5;" width="4" x="1228.5" y="181"/><text fill="#000000" font-family="sans-serif" font-size="14" font-weight="bold" lengthAdjust="spacing" textLength="41" x="1184.5" y="202.9951">email</text><text fill="#000000" font-family="sans-serif" font-size="14" lengthAdjust="spacing" textLength="4" x="1184.5" y="219.292">&#160;</text><text fill="#000000" font-family="sans-serif" font-size="14" lengthAdjust="spacing" textLength="4" x="1184.5" y="235.5889">&#160;</text></g><!--entity 073953f377352b45188b95722da65e99--><g id="elem_073953f377352b45188b95722da65e99"><rect fill="#F1F1F1" height="78.8906" rx="2.5" ry="2.5" style="stroke:#181818;stroke-width:0.5;" width="139" x="585.5" y="462.78"/><rect fill="#F1F1F1" height="10" style="stroke:#181818;stroke-width:0.5;" width="15" x="704.5" y="467.78"/><rect fill="#F1F1F1" height="2" style="stroke:#181818;stroke-width:0.5;" width="4" x="702.5" y="469.78"/><rect fill="#F1F1F1" height="2" style="stroke:#181818;stroke-width:0.5;" width="4" x="702.5" y="473.78"/><text fill="#000000" font-family="sans-serif" font-size="14" font-weight="bold" lengthAdjust="spacing" textLength="99" x="600.5" y="495.7751">product_unit</text><text fill="#000000" font-family="sans-serif" font-size="14" lengthAdjust="spacing" textLength="4" x="600.5" y="512.072">&#160;</text><text fill="#000000" font-family="sans-serif" font-size="14" lengthAdjust="spacing" textLength="4" x="600.5" y="528.3689">&#160;</text></g><!--entity 6ebc7f064610797e8f296fdff3d1b757--><g id="elem_6ebc7f064610797e8f296fdff3d1b757"><rect fill="#F1F1F1" height="78.8906" rx="2.5" ry="2.5" style="stroke:#181818;stroke-width:0.5;" width="102" x="476" y="323.89"/><rect fill="#F1F1F1" height="10" style="stroke:#181818;stroke-width:0.5;" width="15" x="558" y="328.89"/><rect fill="#F1F1F1" height="2" style="stroke:#181818;stroke-width:0.5;" width="4" x="556" y="330.89"/><rect fill="#F1F1F1" height="2" style="stroke:#181818;stroke-width:0.5;" width="4" x="556" y="334.89"/><text fill="#000000" font-family="sans-serif" font-size="14" font-weight="bold" lengthAdjust="spacing" textLength="62" x="491" y="356.8851">product</text><text fill="#000000" font-family="sans-serif" font-size="14" lengthAdjust="spacing" textLength="4" x="491" y="373.182">&#160;</text><text fill="#000000" font-family="sans-serif" font-size="14" lengthAdjust="spacing" textLength="4" x="491" y="389.4789">&#160;</text></g><!--entity cdd4ee5e7bb9bfce2d89834d053b870c--><g id="elem_cdd4ee5e7bb9bfce2d89834d053b870c"><rect fill="#F1F1F1" height="78.8906" rx="2.5" ry="2.5" style="stroke:#181818;stroke-width:0.5;" width="85" x="732.5" y="323.89"/><rect fill="#F1F1F1" height="10" style="stroke:#181818;stroke-width:0.5;" width="15" x="797.5" y="328.89"/><rect fill="#F1F1F1" height="2" style="stroke:#181818;stroke-width:0.5;" width="4" x="795.5" y="330.89"/><rect fill="#F1F1F1" height="2" style="stroke:#181818;stroke-width:0.5;" width="4" x="795.5" y="334.89"/><text fill="#000000" font-family="sans-serif" font-size="14" font-weight="bold" lengthAdjust="spacing" textLength="45" x="747.5" y="356.8851">_base</text><text fill="#000000" font-family="sans-serif" font-size="14" lengthAdjust="spacing" textLength="4" x="747.5" y="373.182">&#160;</text><text fill="#000000" font-family="sans-serif" font-size="14" lengthAdjust="spacing" textLength="4" x="747.5" y="389.4789">&#160;</text></g><!--entity c7ea7757c1cdca10ea62c5c076568546--><g id="elem_c7ea7757c1cdca10ea62c5c076568546"><rect fill="#F1F1F1" height="78.8906" rx="2.5" ry="2.5" style="stroke:#181818;stroke-width:0.5;" width="84" x="613" y="323.89"/><rect fill="#F1F1F1" height="10" style="stroke:#181818;stroke-width:0.5;" width="15" x="677" y="328.89"/><rect fill="#F1F1F1" height="2" style="stroke:#181818;stroke-width:0.5;" width="4" x="675" y="330.89"/><rect fill="#F1F1F1" height="2" style="stroke:#181818;stroke-width:0.5;" width="4" x="675" y="334.89"/><text fill="#000000" font-family="sans-serif" font-size="14" font-weight="bold" lengthAdjust="spacing" textLength="44" x="628" y="356.8851">order</text><text fill="#000000" font-family="sans-serif" font-size="14" lengthAdjust="spacing" textLength="4" x="628" y="373.182">&#160;</text><text fill="#000000" font-family="sans-serif" font-size="14" lengthAdjust="spacing" textLength="4" x="628" y="389.4789">&#160;</text></g><!--entity c99f497e720e33581303686a47f4fa95--><g id="elem_c99f497e720e33581303686a47f4fa95"><rect fill="#F1F1F1" height="78.8906" rx="2.5" ry="2.5" style="stroke:#181818;stroke-width:0.5;" width="86" x="497" y="170"/><rect fill="#F1F1F1" height="10" style="stroke:#181818;stroke-width:0.5;" width="15" x="563" y="175"/><rect fill="#F1F1F1" height="2" style="stroke:#181818;stroke-width:0.5;" width="4" x="561" y="177"/><rect fill="#F1F1F1" height="2" style="stroke:#181818;stroke-width:0.5;" width="4" x="561" y="181"/><text fill="#000000" font-family="sans-serif" font-size="14" font-weight="bold" lengthAdjust="spacing" textLength="46" x="512" y="202.9951">forms</text><text fill="#000000" font-family="sans-serif" font-size="14" lengthAdjust="spacing" textLength="4" x="512" y="219.292">&#160;</text><text fill="#000000" font-family="sans-serif" font-size="14" lengthAdjust="spacing" textLength="4" x="512" y="235.5889">&#160;</text></g><!--entity 0a1f0b710869a37905279dd53bd4ea60--><g id="elem_0a1f0b710869a37905279dd53bd4ea60"><rect fill="#F1F1F1" height="78.8906" rx="2.5" ry="2.5" style="stroke:#181818;stroke-width:0.5;" width="139" x="618.5" y="170"/><rect fill="#F1F1F1" height="10" style="stroke:#181818;stroke-width:0.5;" width="15" x="737.5" y="175"/><rect fill="#F1F1F1" height="2" style="stroke:#181818;stroke-width:0.5;" width="4" x="735.5" y="177"/><rect fill="#F1F1F1" height="2" style="stroke:#181818;stroke-width:0.5;" width="4" x="735.5" y="181"/><text fill="#000000" font-family="sans-serif" font-size="14" font-weight="bold" lengthAdjust="spacing" textLength="99" x="633.5" y="202.9951">product_unit</text><text fill="#000000" font-family="sans-serif" font-size="14" lengthAdjust="spacing" textLength="4" x="633.5" y="219.292">&#160;</text><text fill="#000000" font-family="sans-serif" font-size="14" lengthAdjust="spacing" textLength="4" x="633.5" y="235.5889">&#160;</text></g><!--entity df45175e64813712d025785f7fe33e16--><g id="elem_df45175e64813712d025785f7fe33e16"><rect fill="#F1F1F1" height="78.8906" rx="2.5" ry="2.5" style="stroke:#181818;stroke-width:0.5;" width="102" x="793" y="170"/><rect fill="#F1F1F1" height="10" style="stroke:#181818;stroke-width:0.5;" width="15" x="875" y="175"/><rect fill="#F1F1F1" height="2" style="stroke:#181818;stroke-width:0.5;" width="4" x="873" y="177"/><rect fill="#F1F1F1" height="2" style="stroke:#181818;stroke-width:0.5;" width="4" x="873" y="181"/><text fill="#000000" font-family="sans-serif" font-size="14" font-weight="bold" lengthAdjust="spacing" textLength="62" x="808" y="202.9951">product</text><text fill="#000000" font-family="sans-serif" font-size="14" lengthAdjust="spacing" textLength="4" x="808" y="219.292">&#160;</text><text fill="#000000" font-family="sans-serif" font-size="14" lengthAdjust="spacing" textLength="4" x="808" y="235.5889">&#160;</text></g><!--entity 3a71dee9f26feb31ceec561f9136237d--><g id="elem_3a71dee9f26feb31ceec561f9136237d"><rect fill="#F1F1F1" height="78.8906" rx="2.5" ry="2.5" style="stroke:#181818;stroke-width:0.5;" width="84" x="930" y="170"/><rect fill="#F1F1F1" height="10" style="stroke:#181818;stroke-width:0.5;" width="15" x="994" y="175"/><rect fill="#F1F1F1" height="2" style="stroke:#181818;stroke-width:0.5;" width="4" x="992" y="177"/><rect fill="#F1F1F1" height="2" style="stroke:#181818;stroke-width:0.5;" width="4" x="992" y="181"/><text fill="#000000" font-family="sans-serif" font-size="14" font-weight="bold" lengthAdjust="spacing" textLength="44" x="945" y="202.9951">order</text><text fill="#000000" font-family="sans-serif" font-size="14" lengthAdjust="spacing" textLength="4" x="945" y="219.292">&#160;</text><text fill="#000000" font-family="sans-serif" font-size="14" lengthAdjust="spacing" textLength="4" x="945" y="235.5889">&#160;</text></g><!--entity 6f6ab28fdd9e666784d2133afd41bcb8--><g id="elem_6f6ab28fdd9e666784d2133afd41bcb8"><rect fill="#F1F1F1" height="78.8906" rx="2.5" ry="2.5" style="stroke:#181818;stroke-width:0.5;" width="102" x="220" y="170"/><rect fill="#F1F1F1" height="10" style="stroke:#181818;stroke-width:0.5;" width="15" x="302" y="175"/><rect fill="#F1F1F1" height="2" style="stroke:#181818;stroke-width:0.5;" width="4" x="300" y="177"/><rect fill="#F1F1F1" height="2" style="stroke:#181818;stroke-width:0.5;" width="4" x="300" y="181"/><text fill="#000000" font-family="sans-serif" font-size="14" font-weight="bold" lengthAdjust="spacing" textLength="62" x="235" y="202.9951">product</text><text fill="#000000" font-family="sans-serif" font-size="14" lengthAdjust="spacing" textLength="4" x="235" y="219.292">&#160;</text><text fill="#000000" font-family="sans-serif" font-size="14" lengthAdjust="spacing" textLength="4" x="235" y="235.5889">&#160;</text></g><!--entity 181778bac01f48798a7912b4391eff67--><g id="elem_181778bac01f48798a7912b4391eff67"><rect fill="#F1F1F1" height="78.8906" rx="2.5" ry="2.5" style="stroke:#181818;stroke-width:0.5;" width="84" x="357" y="170"/><rect fill="#F1F1F1" height="10" style="stroke:#181818;stroke-width:0.5;" width="15" x="421" y="175"/><rect fill="#F1F1F1" height="2" style="stroke:#181818;stroke-width:0.5;" width="4" x="419" y="177"/><rect fill="#F1F1F1" height="2" style="stroke:#181818;stroke-width:0.5;" width="4" x="419" y="181"/><text fill="#000000" font-family="sans-serif" font-size="14" font-weight="bold" lengthAdjust="spacing" textLength="44" x="372" y="202.9951">order</text><text fill="#000000" font-family="sans-serif" font-size="14" lengthAdjust="spacing" textLength="4" x="372" y="219.292">&#160;</text><text fill="#000000" font-family="sans-serif" font-size="14" lengthAdjust="spacing" textLength="4" x="372" y="235.5889">&#160;</text></g><!--entity 7e52b1122fa312876dda51a4682caa51--><g id="elem_7e52b1122fa312876dda51a4682caa51"><rect fill="#F1F1F1" height="78.8906" rx="2.5" ry="2.5" style="stroke:#181818;stroke-width:0.5;" width="96" x="1403" y="170"/><rect fill="#F1F1F1" height="10" style="stroke:#181818;stroke-width:0.5;" width="15" x="1479" y="175"/><rect fill="#F1F1F1" height="2" style="stroke:#181818;stroke-width:0.5;" width="4" x="1477" y="177"/><rect fill="#F1F1F1" height="2" style="stroke:#181818;stroke-width:0.5;" width="4" x="1477" y="181"/><text fill="#000000" font-family="sans-serif" font-size="14" font-weight="bold" lengthAdjust="spacing" textLength="56" x="1418" y="202.9951">_future</text><text fill="#000000" font-family="sans-serif" font-size="14" lengthAdjust="spacing" textLength="4" x="1418" y="219.292">&#160;</text><text fill="#000000" font-family="sans-serif" font-size="14" lengthAdjust="spacing" textLength="4" x="1418" y="235.5889">&#160;</text></g><!--entity f3082a07da6287689b47eaf209b070c6--><g id="elem_f3082a07da6287689b47eaf209b070c6"><rect fill="#F1F1F1" height="78.8906" rx="2.5" ry="2.5" style="stroke:#181818;stroke-width:0.5;" width="139" x="1331.5" y="462.78"/><rect fill="#F1F1F1" height="10" style="stroke:#181818;stroke-width:0.5;" width="15" x="1450.5" y="467.78"/><rect fill="#F1F1F1" height="2" style="stroke:#181818;stroke-width:0.5;" width="4" x="1448.5" y="469.78"/><rect fill="#F1F1F1" height="2" style="stroke:#181818;stroke-width:0.5;" width="4" x="1448.5" y="473.78"/><text fill="#000000" font-family="sans-serif" font-size="14" font-weight="bold" lengthAdjust="spacing" textLength="99" x="1346.5" y="495.7751">product_unit</text><text fill="#000000" font-family="sans-serif" font-size="14" lengthAdjust="spacing" textLength="4" x="1346.5" y="512.072">&#160;</text><text fill="#000000" font-family="sans-serif" font-size="14" lengthAdjust="spacing" textLength="4" x="1346.5" y="528.3689">&#160;</text></g><!--entity 5f5effba3b662041eaaaa0fcd372f336--><g id="elem_5f5effba3b662041eaaaa0fcd372f336"><rect fill="#F1F1F1" height="78.8906" rx="2.5" ry="2.5" style="stroke:#181818;stroke-width:0.5;" width="102" x="1331" y="601.67"/><rect fill="#F1F1F1" height="10" style="stroke:#181818;stroke-width:0.5;" width="15" x="1413" y="606.67"/><rect fill="#F1F1F1" height="2" style="stroke:#181818;stroke-width:0.5;" width="4" x="1411" y="608.67"/><rect fill="#F1F1F1" height="2" style="stroke:#181818;stroke-width:0.5;" width="4" x="1411" y="612.67"/><text fill="#000000" font-family="sans-serif" font-size="14" font-weight="bold" lengthAdjust="spacing" textLength="62" x="1346" y="634.6651">product</text><text fill="#000000" font-family="sans-serif" font-size="14" lengthAdjust="spacing" textLength="4" x="1346" y="650.962">&#160;</text><text fill="#000000" font-family="sans-serif" font-size="14" lengthAdjust="spacing" textLength="4" x="1346" y="667.2589">&#160;</text></g><!--entity ec19b6704c6928b6b5adb9977e5a0d0d--><g id="elem_ec19b6704c6928b6b5adb9977e5a0d0d"><rect fill="#F1F1F1" height="78.8906" rx="2.5" ry="2.5" style="stroke:#181818;stroke-width:0.5;" width="85" x="1339.5" y="740.56"/><rect fill="#F1F1F1" height="10" style="stroke:#181818;stroke-width:0.5;" width="15" x="1404.5" y="745.56"/><rect fill="#F1F1F1" height="2" style="stroke:#181818;stroke-width:0.5;" width="4" x="1402.5" y="747.56"/><rect fill="#F1F1F1" height="2" style="stroke:#181818;stroke-width:0.5;" width="4" x="1402.5" y="751.56"/><text fill="#000000" font-family="sans-serif" font-size="14" font-weight="bold" lengthAdjust="spacing" textLength="45" x="1354.5" y="773.5551">_base</text><text fill="#000000" font-family="sans-serif" font-size="14" lengthAdjust="spacing" textLength="4" x="1354.5" y="789.852">&#160;</text><text fill="#000000" font-family="sans-serif" font-size="14" lengthAdjust="spacing" textLength="4" x="1354.5" y="806.1489">&#160;</text></g><!--entity 79cea6b7eb0ec2f8c32f397c69a50f73--><g id="elem_79cea6b7eb0ec2f8c32f397c69a50f73"><rect fill="#F1F1F1" height="78.8906" rx="2.5" ry="2.5" style="stroke:#181818;stroke-width:0.5;" width="84" x="1331" y="323.89"/><rect fill="#F1F1F1" height="10" style="stroke:#181818;stroke-width:0.5;" width="15" x="1395" y="328.89"/><rect fill="#F1F1F1" height="2" style="stroke:#181818;stroke-width:0.5;" width="4" x="1393" y="330.89"/><rect fill="#F1F1F1" height="2" style="stroke:#181818;stroke-width:0.5;" width="4" x="1393" y="334.89"/><text fill="#000000" font-family="sans-serif" font-size="14" font-weight="bold" lengthAdjust="spacing" textLength="44" x="1346" y="356.8851">order</text><text fill="#000000" font-family="sans-serif" font-size="14" lengthAdjust="spacing" textLength="4" x="1346" y="373.182">&#160;</text><text fill="#000000" font-family="sans-serif" font-size="14" lengthAdjust="spacing" textLength="4" x="1346" y="389.4789">&#160;</text></g><!--link 073953f377352b45188b95722da65e99 to f3082a07da6287689b47eaf209b070c6--><g id="link_073953f377352b45188b95722da65e99_f3082a07da6287689b47eaf209b070c6"><path codeLine="135" d="M724.94,502.22 C926.96,502.22 1122.99,502.22 1325.02,502.22 " fill="none" id="073953f377352b45188b95722da65e99-to-f3082a07da6287689b47eaf209b070c6" style="stroke:#181818;stroke-width:1.0;"/><polygon fill="#181818" points="1331.02,502.22,1322.02,498.22,1326.02,502.22,1322.02,506.22,1331.02,502.22" style="stroke:#181818;stroke-width:1.0;"/></g><!--link 6ebc7f064610797e8f296fdff3d1b757 to 073953f377352b45188b95722da65e99--><g id="link_6ebc7f064610797e8f296fdff3d1b757_073953f377352b45188b95722da65e99"><path codeLine="136" d="M563.34,403.19 C580.78,421.85 597.5235,439.7461 614.9135,458.3561 " fill="none" id="6ebc7f064610797e8f296fdff3d1b757-to-073953f377352b45188b95722da65e99" style="stroke:#181818;stroke-width:1.0;"/><polygon fill="#181818" points="619.01,462.74,615.7878,453.4331,615.5962,459.0867,609.9426,458.8952,619.01,462.74" style="stroke:#181818;stroke-width:1.0;"/></g><!--link 6ebc7f064610797e8f296fdff3d1b757 to ec19b6704c6928b6b5adb9977e5a0d0d--><g id="link_6ebc7f064610797e8f296fdff3d1b757_ec19b6704c6928b6b5adb9977e5a0d0d"><path codeLine="137" d="M522.27,403.03 C518.48,452.98 520.14,539.43 568,589.67 C676.71,703.79 1181.1574,759.9973 1333.1974,774.5773 " fill="none" id="6ebc7f064610797e8f296fdff3d1b757-to-ec19b6704c6928b6b5adb9977e5a0d0d" style="stroke:#181818;stroke-width:1.0;"/><polygon fill="#181818" points="1339.17,775.15,1330.5929,770.3091,1334.1928,774.6727,1329.8293,778.2726,1339.17,775.15" style="stroke:#181818;stroke-width:1.0;"/></g><!--link 6ebc7f064610797e8f296fdff3d1b757 to 5f5effba3b662041eaaaa0fcd372f336--><g id="link_6ebc7f064610797e8f296fdff3d1b757_5f5effba3b662041eaaaa0fcd372f336"><path codeLine="138" d="M578.49,394.67 C584,397.54 589.57,400.3 595,402.78 C707.86,454.26 1001.32,557.04 1121,589.67 C1192.91,609.27 1272.0333,623.2851 1325.0333,631.6451 " fill="none" id="6ebc7f064610797e8f296fdff3d1b757-to-5f5effba3b662041eaaaa0fcd372f336" style="stroke:#181818;stroke-width:1.0;"/><polygon fill="#181818" points="1330.96,632.58,1322.6932,627.2266,1326.0211,631.801,1321.4467,635.1289,1330.96,632.58" style="stroke:#181818;stroke-width:1.0;"/></g><!--link c7ea7757c1cdca10ea62c5c076568546 to 073953f377352b45188b95722da65e99--><g id="link_c7ea7757c1cdca10ea62c5c076568546_073953f377352b45188b95722da65e99"><path codeLine="139" d="M655,403.19 C655,421.85 655,438.13 655,456.74 " fill="none" id="c7ea7757c1cdca10ea62c5c076568546-to-073953f377352b45188b95722da65e99" style="stroke:#181818;stroke-width:1.0;"/><polygon fill="#181818" points="655,462.74,659,453.74,655,457.74,651,453.74,655,462.74" style="stroke:#181818;stroke-width:1.0;"/></g><!--link c99f497e720e33581303686a47f4fa95 to ec19b6704c6928b6b5adb9977e5a0d0d--><g id="link_c99f497e720e33581303686a47f4fa95_ec19b6704c6928b6b5adb9977e5a0d0d"><path codeLine="140" d="M568.88,249.19 C578.03,258.65 588.94,267.56 601,272.89 C648.4,293.81 786,261.38 834,280.89 C958.62,331.54 1241.5509,627.7992 1342.2309,735.9092 " fill="none" id="c99f497e720e33581303686a47f4fa95-to-ec19b6704c6928b6b5adb9977e5a0d0d" style="stroke:#181818;stroke-width:1.0;"/><polygon fill="#181818" points="1346.32,740.3,1343.1136,730.9877,1342.9124,736.641,1337.2592,736.4398,1346.32,740.3" style="stroke:#181818;stroke-width:1.0;"/></g><!--link 0a1f0b710869a37905279dd53bd4ea60 to 5f5effba3b662041eaaaa0fcd372f336--><g id="link_0a1f0b710869a37905279dd53bd4ea60_5f5effba3b662041eaaaa0fcd372f336"><path codeLine="141" d="M731.2,249.07 C744.37,258.65 759.5,267.66 775,272.89 C805.55,283.18 1036.11,266.58 1065,280.89 C1222.98,359.13 1186.85,467.55 1314,589.67 C1319.19,594.66 1320.2221,595.8204 1326.0421,600.5204 " fill="none" id="0a1f0b710869a37905279dd53bd4ea60-to-5f5effba3b662041eaaaa0fcd372f336" style="stroke:#181818;stroke-width:1.0;"/><polygon fill="#181818" points="1330.71,604.29,1326.2212,595.5236,1326.82,601.1486,1321.195,601.7475,1330.71,604.29" style="stroke:#181818;stroke-width:1.0;"/></g><!--link 3a71dee9f26feb31ceec561f9136237d to 79cea6b7eb0ec2f8c32f397c69a50f73--><g id="link_3a71dee9f26feb31ceec561f9136237d_79cea6b7eb0ec2f8c32f397c69a50f73"><path codeLine="142" d="M992.37,249.33 C999.21,258.66 1007.76,267.48 1018,272.89 C1039.83,284.42 1216.37,273.76 1240,280.89 C1272.79,290.77 1300.7632,307.2887 1325.6232,324.9987 " fill="none" id="3a71dee9f26feb31ceec561f9136237d-to-79cea6b7eb0ec2f8c32f397c69a50f73" style="stroke:#181818;stroke-width:1.0;"/><polygon fill="#181818" points="1330.51,328.48,1325.5007,320.0002,1326.4377,325.5789,1320.859,326.5159,1330.51,328.48" style="stroke:#181818;stroke-width:1.0;"/></g><!--link 6f6ab28fdd9e666784d2133afd41bcb8 to 6ebc7f064610797e8f296fdff3d1b757--><g id="link_6f6ab28fdd9e666784d2133afd41bcb8_6ebc7f064610797e8f296fdff3d1b757"><path codeLine="143" d="M309.24,249.21 C318.54,257.59 328.77,265.99 339,272.89 C382.3,302.1 431.0669,324.5576 470.1669,340.5576 " fill="none" id="6f6ab28fdd9e666784d2133afd41bcb8-to-6ebc7f064610797e8f296fdff3d1b757" style="stroke:#181818;stroke-width:1.0;"/><polygon fill="#181818" points="475.72,342.83,468.9053,335.7194,471.0925,340.9364,465.8755,343.1235,475.72,342.83" style="stroke:#181818;stroke-width:1.0;"/></g><!--link 6f6ab28fdd9e666784d2133afd41bcb8 to 5f5effba3b662041eaaaa0fcd372f336--><g id="link_6f6ab28fdd9e666784d2133afd41bcb8_5f5effba3b662041eaaaa0fcd372f336"><path codeLine="144" d="M303.49,249.07 C313.77,258.65 325.9,267.66 339,272.89 C390.09,293.27 782.3,262.1 834,280.89 C846.8,285.54 1202.96,583.29 1215,589.67 C1251.53,609.02 1290.7374,620.7148 1324.8474,628.6848 " fill="none" id="6f6ab28fdd9e666784d2133afd41bcb8-to-5f5effba3b662041eaaaa0fcd372f336" style="stroke:#181818;stroke-width:1.0;"/><polygon fill="#181818" points="1330.69,630.05,1322.8362,624.1072,1325.8211,628.9124,1321.0159,631.8973,1330.69,630.05" style="stroke:#181818;stroke-width:1.0;"/></g><!--link 181778bac01f48798a7912b4391eff67 to cdd4ee5e7bb9bfce2d89834d053b870c--><g id="link_181778bac01f48798a7912b4391eff67_cdd4ee5e7bb9bfce2d89834d053b870c"><path codeLine="145" d="M439.85,249.32 C452.17,258.77 466.34,267.66 481,272.89 C505.5,281.62 691.99,268.76 715,280.89 C732.71,290.22 743.4185,302.272 753.3185,318.452 " fill="none" id="181778bac01f48798a7912b4391eff67-to-cdd4ee5e7bb9bfce2d89834d053b870c" style="stroke:#181818;stroke-width:1.0;"/><polygon fill="#181818" points="756.45,323.57,755.1647,313.8054,753.8404,319.305,748.3407,317.9807,756.45,323.57" style="stroke:#181818;stroke-width:1.0;"/></g><!--link 181778bac01f48798a7912b4391eff67 to c7ea7757c1cdca10ea62c5c076568546--><g id="link_181778bac01f48798a7912b4391eff67_c7ea7757c1cdca10ea62c5c076568546"><path codeLine="146" d="M440.4,249.31 C452.62,258.64 466.6,267.46 481,272.89 C504.97,281.92 573.6,268.46 596,280.89 C613.25,290.46 623.6548,302.3221 633.3748,318.3221 " fill="none" id="181778bac01f48798a7912b4391eff67-to-c7ea7757c1cdca10ea62c5c076568546" style="stroke:#181818;stroke-width:1.0;"/><polygon fill="#181818" points="636.49,323.45,635.2358,313.6813,633.894,319.1767,628.3986,317.8349,636.49,323.45" style="stroke:#181818;stroke-width:1.0;"/></g><!--link 181778bac01f48798a7912b4391eff67 to 79cea6b7eb0ec2f8c32f397c69a50f73--><g id="link_181778bac01f48798a7912b4391eff67_79cea6b7eb0ec2f8c32f397c69a50f73"><path codeLine="147" d="M439.36,249.18 C451.78,258.76 466.12,267.74 481,272.89 C509.73,282.81 997.84,277.15 1028,280.89 C1138.85,294.62 1260.1917,328.1003 1324.7717,347.4203 " fill="none" id="181778bac01f48798a7912b4391eff67-to-79cea6b7eb0ec2f8c32f397c69a50f73" style="stroke:#181818;stroke-width:1.0;"/><polygon fill="#181818" points="1330.52,349.14,1323.044,342.7283,1325.7298,347.7069,1320.7511,350.3927,1330.52,349.14" style="stroke:#181818;stroke-width:1.0;"/></g><!--link 181778bac01f48798a7912b4391eff67 to f3082a07da6287689b47eaf209b070c6--><g id="link_181778bac01f48798a7912b4391eff67_f3082a07da6287689b47eaf209b070c6"><path codeLine="148" d="M439.37,249.17 C451.78,258.75 466.12,267.74 481,272.89 C534.56,291.43 936.15,266.62 991,280.89 C1130.21,317.09 1269.154,406.0016 1343.884,458.9416 " fill="none" id="181778bac01f48798a7912b4391eff67-to-f3082a07da6287689b47eaf209b070c6" style="stroke:#181818;stroke-width:1.0;"/><polygon fill="#181818" points="1348.78,462.41,1343.7483,453.9435,1344.7,459.5197,1339.1238,460.4714,1348.78,462.41" style="stroke:#181818;stroke-width:1.0;"/></g><!--link 7e52b1122fa312876dda51a4682caa51 to 79cea6b7eb0ec2f8c32f397c69a50f73--><g id="link_7e52b1122fa312876dda51a4682caa51_79cea6b7eb0ec2f8c32f397c69a50f73"><path codeLine="149" d="M1431.12,249.16 C1419.43,271.93 1407.4312,295.2828 1395.7212,318.0828 " fill="none" id="7e52b1122fa312876dda51a4682caa51-to-79cea6b7eb0ec2f8c32f397c69a50f73" style="stroke:#181818;stroke-width:1.0;"/><polygon fill="#181818" points="1392.98,323.42,1400.6499,317.2416,1395.2643,318.9723,1393.5336,313.5867,1392.98,323.42" style="stroke:#181818;stroke-width:1.0;"/></g><!--link 7e52b1122fa312876dda51a4682caa51 to 5f5effba3b662041eaaaa0fcd372f336--><g id="link_7e52b1122fa312876dda51a4682caa51_5f5effba3b662041eaaaa0fcd372f336"><path codeLine="150" d="M1460.68,249.23 C1480.98,334.24 1523.28,533.81 1488,589.67 C1475.81,608.97 1459.6431,619.0016 1438.9631,626.4716 " fill="none" id="7e52b1122fa312876dda51a4682caa51-to-5f5effba3b662041eaaaa0fcd372f336" style="stroke:#181818;stroke-width:1.0;"/><polygon fill="#181818" points="1433.32,628.51,1443.1436,629.2145,1438.0226,626.8113,1440.4258,621.6903,1433.32,628.51" style="stroke:#181818;stroke-width:1.0;"/></g><!--link 7e52b1122fa312876dda51a4682caa51 to f3082a07da6287689b47eaf209b070c6--><g id="link_7e52b1122fa312876dda51a4682caa51_f3082a07da6287689b47eaf209b070c6"><path codeLine="151" d="M1449.89,249.13 C1448.18,288.23 1443.86,350.23 1433,402.78 C1428.85,422.84 1424.0287,438.8957 1417.7687,456.8157 " fill="none" id="7e52b1122fa312876dda51a4682caa51-to-f3082a07da6287689b47eaf209b070c6" style="stroke:#181818;stroke-width:1.0;"/><polygon fill="#181818" points="1415.79,462.48,1422.5343,455.3027,1417.4389,457.7597,1414.9819,452.6644,1415.79,462.48" style="stroke:#181818;stroke-width:1.0;"/></g><!--link f3082a07da6287689b47eaf209b070c6 to ec19b6704c6928b6b5adb9977e5a0d0d--><g id="link_f3082a07da6287689b47eaf209b070c6_ec19b6704c6928b6b5adb9977e5a0d0d"><path codeLine="152" d="M1425.92,541.81 C1435.81,559.34 1446,580.79 1451,601.67 C1459.16,635.77 1461.55,647.12 1451,680.56 C1444.15,702.25 1434.3183,718.5875 1421.0383,735.6275 " fill="none" id="f3082a07da6287689b47eaf209b070c6-to-ec19b6704c6928b6b5adb9977e5a0d0d" style="stroke:#181818;stroke-width:1.0;"/><polygon fill="#181818" points="1417.35,740.36,1426.0374,735.7201,1420.4235,736.4162,1419.7274,730.8024,1417.35,740.36" style="stroke:#181818;stroke-width:1.0;"/></g><!--link f3082a07da6287689b47eaf209b070c6 to 5f5effba3b662041eaaaa0fcd372f336--><g id="link_f3082a07da6287689b47eaf209b070c6_5f5effba3b662041eaaaa0fcd372f336"><path codeLine="153" d="M1395.61,542.08 C1393.02,560.74 1390.7439,577.0768 1388.1639,595.6868 " fill="none" id="f3082a07da6287689b47eaf209b070c6-to-5f5effba3b662041eaaaa0fcd372f336" style="stroke:#181818;stroke-width:1.0;"/><polygon fill="#181818" points="1387.34,601.63,1392.538,593.2645,1388.0266,596.6774,1384.6138,592.166,1387.34,601.63" style="stroke:#181818;stroke-width:1.0;"/></g><!--link 5f5effba3b662041eaaaa0fcd372f336 to ec19b6704c6928b6b5adb9977e5a0d0d--><g id="link_5f5effba3b662041eaaaa0fcd372f336_ec19b6704c6928b6b5adb9977e5a0d0d"><path codeLine="154" d="M1382,680.98 C1382,699.63 1382,715.91 1382,734.52 " fill="none" id="5f5effba3b662041eaaaa0fcd372f336-to-ec19b6704c6928b6b5adb9977e5a0d0d" style="stroke:#181818;stroke-width:1.0;"/><polygon fill="#181818" points="1382,740.52,1386,731.52,1382,735.52,1378,731.52,1382,740.52" style="stroke:#181818;stroke-width:1.0;"/></g><!--link 79cea6b7eb0ec2f8c32f397c69a50f73 to 7217ba70f7e5e24b2dca0c4263175bd7--><g id="link_79cea6b7eb0ec2f8c32f397c69a50f73_7217ba70f7e5e24b2dca0c4263175bd7"><path codeLine="155" d="M1331.39,323.56 C1306.62,300.48 1279.7098,275.4002 1255.0998,252.4702 " fill="none" id="79cea6b7eb0ec2f8c32f397c69a50f73-to-7217ba70f7e5e24b2dca0c4263175bd7" style="stroke:#181818;stroke-width:1.0;"/><polygon fill="#181818" points="1250.71,248.38,1254.568,257.4418,1254.3682,251.7885,1260.0215,251.5887,1250.71,248.38" style="stroke:#181818;stroke-width:1.0;"/></g><!--link 79cea6b7eb0ec2f8c32f397c69a50f73 to ec19b6704c6928b6b5adb9977e5a0d0d--><g id="link_79cea6b7eb0ec2f8c32f397c69a50f73_ec19b6704c6928b6b5adb9977e5a0d0d"><path codeLine="156" d="M1415.29,399.84 C1447.66,427.13 1486.97,460.54 1488,462.78 C1528.74,551.28 1507.86,594.07 1463,680.56 C1451.89,701.98 1439.5328,718.5037 1424.4328,735.5937 " fill="none" id="79cea6b7eb0ec2f8c32f397c69a50f73-to-ec19b6704c6928b6b5adb9977e5a0d0d" style="stroke:#181818;stroke-width:1.0;"/><polygon fill="#181818" points="1420.46,740.09,1429.4167,735.994,1423.7706,736.3431,1423.4216,730.697,1420.46,740.09" style="stroke:#181818;stroke-width:1.0;"/></g><!--link 79cea6b7eb0ec2f8c32f397c69a50f73 to f3082a07da6287689b47eaf209b070c6--><g id="link_79cea6b7eb0ec2f8c32f397c69a50f73_f3082a07da6287689b47eaf209b070c6"><path codeLine="157" d="M1380.95,403.19 C1384.76,421.85 1388.1166,438.2519 1391.9266,456.8619 " fill="none" id="79cea6b7eb0ec2f8c32f397c69a50f73-to-f3082a07da6287689b47eaf209b070c6" style="stroke:#181818;stroke-width:1.0;"/><polygon fill="#181818" points="1393.13,462.74,1395.2436,453.1206,1392.1272,457.8416,1387.4062,454.7252,1393.13,462.74" style="stroke:#181818;stroke-width:1.0;"/></g><!--SRC=[hLRBZXj73BphAnOvBc1iFydc9JyI10QRR3f2z8AaZPq4-VTGqiPUUOtjEKIww20MYyLYpV1ci_-yNNzPxpwj3Yo_ywVnyDDF3tnwIAAf199M8aeC6dZKFA1o4yrTyE7lbUotX_rkxCuFIWJHo9YZrf27nAG6RDOLB75v-6Nr-BZUdSUHvRpUxqvFV_9EnvUFV5W_FgvMgrzVWPc5I1oQOR6I4bB9DdgEDUVHcUqAzdnURqvFs_sEzVI2y9K_7mvFrnbQHGQYKiOma2IL8a01JPHi4D3T32bBLsAjO33YG0kr5IsfQvRMJMzjZvl_sltphU7fj_rBHy8SSaA82iobHp998TSU1hPao7STiRO-81GOKaDg9AMH2eM8t1GmN3kwGa-lkdwhZYBeD4UDJMCo4zzHwnMIm0WbjfVgmmyg0o6oDb0Sg2drfA9IIoOGx9rlbRfTxxvNLlR7SHjKg0gep-YbeME6ZAJOa2e1rvZkxT44Mi_LRG4YaefYRiA4FNQn4gyDRRrnVxnbYobYPmpceuvKBcGvI4cG8zQkU2qUMrvllcTx6iSrRzP_EUgDTCoIkTMi2SXz74YZkbQja-OHnEv81ynKisN4N5ClBhF_hs9Aob07qRNluRZNPpb_VDwjps-Om_0xiU2EYm49HxD4O6gMDNQi-1hXJR6ekcthy8LGDnb96xLSDDJS6mQv5d_iV1flIt4mEhv4Nol7CDXDKIKWL6YrmBLqVzHnV6lbwzfVl1pW8ldeLB3uHHHDJNk9XKNCFNIdbX1PyHanXP5pRT7l01fmGIl6L6yhtX-tRnSSE9fRA8RcMt4RXUeth-fpkW8COIwqcgy7wu3YVT6p9wIAhHgQSnaHtXKwCxeB1bc2Qyp8y7Eyf5dCa3BgUshziHwVNxp5t28GP6Beu8SFJIstxb5GiGV9Tsfvn71FpLHf001wqAIOCviMluZUtYKSMqHidIL4AtvnZP6YEpHJ76Q0Fo3yYhBs6ry_1EzVFAzw7wsw-kY3SyoNs7SsplThpNQlO_Cof_KBPUwYrZWD82-WghL1RI7e_PpkdzHZJCaunzGGL3qSk41BmlxhPc9xFZyVtzhOScY90_gzNKeRzUB6jXIe1py0cFkYMdL5EkSEa3mJ1_idc3_0C5dEx_l27sBKFOMB0ANcEwsidJmvHsMFMdtd0974ZTjnUEvBiYRPsn4w45VFiVp33Ls-qypve1z-dWgpcWRF5MRMR27CJAU5CBDThQQfjcoeQL0j6seQMik6ceRF5MRcfzKqJwumiqKiX9aEDGseAypi0RSKPcABXJ1JYPV1J4zpceZBs2o3cMvg6Snqg6bIBxkfPJ3JeQQflupDDCHlcvgydIw4-P_Op1Jy5m00]--></g></svg>